<svg xmlns="http://www.w3.org/2000/svg" viewBox="0 0 512 512" fill="#F47521">
    <path d="M256 32c-74.6 0-135 60.4-135 135 0 54.5 32.3 101.4 78.9 122.5-30.6 15.3-57.5 37.6-78.6 65.3-32.4 42.5-51.3 94.2-51.3 147.2 0 5.5 4.5 10 10 10h352c5.5 0 10-4.5 10-10 0-53-18.9-104.7-51.3-147.2-21.1-27.7-48-50-78.6-65.3 46.6-21.1 78.9-68 78.9-122.5 0-74.6-60.4-135-135-135zm0 20c63.5 0 115 51.5 115 115 0 63.5-51.5 115-115 115s-115-51.5-115-115c0-63.5 51.5-115 115-115zM150.8 319.6c21.9-28.6 50.4-50.3 83.2-63.9 7.1 1.5 14.5 2.3 22 2.3 7.5 0 14.9-.8 22-2.3 32.8 13.6 61.3 35.3 83.2 63.9 29.8 39 47.1 86.5 47.7 135.4H103.1c.6-48.9 17.9-96.4 47.7-135.4z"/>
    <path d="M256 122c-24.8 0-45 20.2-45 45s20.2 45 45 45 45-20.2 45-45-20.2-45-45-45zm0 20c13.8 0 25 11.2 25 25s-11.2 25-25 25-25-11.2-25-25 11.2-25 25-25z"/>
</svg>